# xmcd CD database file
#
# Track frame offsets:
#	150
#	18480
#	36097
#	49573
#	60423
#	80562
#	96920
#	113746
#	132964
#	146642
#
# Disc length: 2282 seconds
#
# Revision: 0
# Processed by: cddbd v1.5.1PL0 Copyright (c) Steve Scherf et al.
# Submitted via: CDex 1.51
#
DISCID=8008e80a
DTITLE=The Beauty Shop - Crisis Helpline
DYEAR=2004
DGENRE=Country
TTITLE0=Paper Hearts For Josie
TTITLE1=Monster
TTITLE2=Nightcrawlers
TTITLE3=Babyshaker
TTITLE4=The Love I Could Not Save
TTITLE5=Hatchet Job
TTITLE6=Rumplestiltskin Lives
TTITLE7=Somewhere
TTITLE8=A Desperate Cry For Help
TTITLE9=Closer
EXTD=YEAR: 2004
EXTT0=
EXTT1=
EXTT2=
EXTT3=
EXTT4=
EXTT5=
EXTT6=
EXTT7=
EXTT8=
EXTT9=
PLAYORDER=
